:SAMPLES-PER-SECOND 30
:FRAME-RANGE 1-663
:FULLY-SPECIFIED
:DEGREES
456
root  -17.3902 38.5031 -57.6007 178.369 17.1112 -177.464
RightUpLeg  3.78379 -1.66642 1.85137
RightLeg  22.4242 5.37952 2.21613
RightFoot  -22.1178 -0.511026 -3.82983
RightToes  -3.4386e-010 1.2921e-014 -6.02303e-014
Spine  -9.0256 -3.07935 5.59354
Spine1  8.87295 -3.13521 -2.54118
HEad  14.7263 -23.4753 7.0017
LeftShoulder1  1.16323 -2.2403 -14.3154
LeftArm  -5.94562 -6.68887 -42.7646
LeftForeArm  -2.0307 -43.1005 -10.6064
LeftHand  0.094091 2.98455 -5.51782
RightShoulder  1.64162 1.66012 27.0558
RightArm  -2.19052 0.409173 54.7964
RightForeArm  16.1179 57.6454 16.5456
RightHand  0.160532 -8.64824 -7.01865
LeftUpLeg  -21.4312 -0.627038 8.07773
LeftLeg  -0.449062 -21.9516 6.39467
LeftFoot  -10.3796 0.191055 -15.3116
LeftToes  -7.12384e-010 -7.51861e-011 -8.34901e-011
457
root  -17.5228 38.2149 -58.8075 176.805 19.6622 -178.067
RightUpLeg  6.26421 2.06089 1.04604
RightLeg  24.0856 4.34818 1.90204
RightFoot  -24.4367 -0.476372 -2.70795
RightToes  -3.4386e-010 1.2921e-014 -6.02303e-014
Spine  -6.79207 -3.46521 3.80509
Spine1  8.26274 -3.51812 -1.81882
HEad  15.0169 -24.6039 6.66149
LeftShoulder1  1.22161 -2.51526 -14.3299
LeftArm  -5.55645 -8.52406 -43.0151
LeftForeArm  -3.69602 -41.8206 -10.2461
LeftHand  0.0184309 4.26889 -4.76142
RightShoulder  1.59337 1.48598 27.251
RightArm  -2.66847 1.04157 55.2749
RightForeArm  16.1763 56.8825 16.0115
RightHand  0.128087 -8.25022 -6.63682
LeftUpLeg  -20.794 -2.2346 8.33577
LeftLeg  4.04634 -20.6666 4.21039
LeftFoot  -10.5968 0.150564 -13.3891
LeftToes  -7.12384e-010 -7.51861e-011 -8.34901e-011
458
root  -17.6653 37.9746 -59.9884 175.248 22.4253 -178.878
RightUpLeg  8.59496 5.60209 0.078588
RightLeg  25.5684 3.92749 1.82353
RightFoot  -26.1568 -0.397803 -1.69592
RightToes  -3.4386e-010 1.2921e-014 -6.02303e-014
Spine  -4.87468 -3.55258 1.67038
Spine1  8.04614 -3.70006 -1.13227
HEad  15.2446 -26.0874 5.96849
LeftShoulder1  1.32028 -2.75527 -15.2047
LeftArm  -4.10681 -11.329 -42.3021
LeftForeArm  -6.05592 -40.1096 -9.79583
LeftHand  -0.0145773 4.94282 -4.33696
RightShoulder  1.5757 1.42848 27.2806
RightArm  -4.04992 1.19838 55.4348
RightForeArm  16.3095 56.4823 15.7317
RightHand  0.128736 -8.19449 -6.77721
LeftUpLeg  -19.499 -8.04628 8.85897
LeftLeg  7.75029 -14.8303 4.20227
LeftFoot  -6.96162 0.755114 -18.5219
LeftToes  -7.12384e-010 -7.51861e-011 -8.34901e-011
459
root  -17.8187 37.8237 -61.1925 173.97 25.1731 179.987
RightUpLeg  9.95417 8.86023 -1.41954
RightLeg  27.7791 4.51397 2.35019
RightFoot  -27.0817 -0.184073 -0.00275604
RightToes  -3.4386e-010 1.2921e-014 -6.02303e-014
Spine  -2.79284 -3.63333 -1.32588
Spine1  6.90997 -4.15497 0.402667
HEad  15.5055 -28.025 5.89901
LeftShoulder1  1.34799 -2.8661 -15.2683
LeftArm  -3.22914 -12.476 -42.9949
LeftForeArm  -6.68066 -39.2155 -9.53491
LeftHand  -0.0321004 5.34658 -4.28176
RightShoulder  1.47442 1.08796 27.5507
RightArm  -4.46601 1.54948 54.8519
RightForeArm  15.8824 55.9444 15.4232
RightHand  0.132703 -8.1979 -6.92435
LeftUpLeg  -19.7805 -13.8844 9.70196
LeftLeg  12.7547 -9.50373 1.35443
LeftFoot  -2.32624 1.35814 -16.9471
LeftToes  -7.12384e-010 -7.51861e-011 -8.34901e-011
460
root  -17.9611 37.702 -62.4386 174.163 27.7165 179.344
RightUpLeg  8.9304 11.9287 -2.66875
RightLeg  31.6518 5.06179 3.12157
RightFoot  -26.827 0.0793573 1.92235
RightToes  -3.4386e-010 1.2921e-014 -6.02303e-014
Spine  -3.20344 -3.69133 -3.01372
Spine1  7.03545 -4.4591 1.54834
HEad  15.127 -30.3985 6.68631
LeftShoulder1  1.42841 -3.21581 -15.3374
LeftArm  -2.29213 -13.9379 -43.7618
LeftForeArm  -6.70777 -37.6786 -9.04453
LeftHand  -0.0111697 4.87933 -4.52695
RightShoulder  1.44578 0.912037 28.2899
RightArm  -5.65511 1.66108 54.0142
RightForeArm  15.5556 55.2921 15.0445
RightHand  0.112144 -7.95579 -6.62244
LeftUpLeg  -21.3808 -16.6146 10.7602
LeftLeg  17.6637 -4.4425 -1.15315
LeftFoot  -2.15933 1.63939 -20.0755
LeftToes  -7.12384e-010 -7.51861e-011 -8.34901e-011
461
root  -18.119 37.7886 -63.5554 175.086 30.55 178.217
RightUpLeg  5.25624 13.968 -5.16639
RightLeg  37.0669 6.08985 4.66329
RightFoot  -24.2585 0.246556 3.6305
RightToes  -3.4386e-010 1.2921e-014 -6.02303e-014
Spine  -5.28846 -3.57351 -4.89478
Spine1  8.25055 -4.43502 1.86939
HEad  14.7124 -32.674 7.28905
LeftShoulder1  1.60822 -3.94615 -15.6389
LeftArm  -1.56505 -15.4276 -44.7317
LeftForeArm  -5.99808 -35.7019 -8.40597
LeftHand  0.082186 3.15416 -5.36706
RightShoulder  1.46104 0.965882 28.215
RightArm  -7.84617 1.11409 53.7338
RightForeArm  16.0551 54.905 14.7636
RightHand  0.0898127 -7.76693 -6.05811
LeftUpLeg  -21.8975 -11.9059 8.67223
LeftLeg  20.103 -5.5668 -1.92356
LeftFoot  -2.97848 1.35853 -18.2071
LeftToes  -7.12384e-010 -7.51861e-011 -8.34901e-011
462
root  -18.3065 37.9735 -64.566 176.313 34.0223 177.392
RightUpLeg  -0.372808 14.8506 -7.94611
RightLeg  43.9457 6.96948 6.8567
RightFoot  -19.6203 0.241395 5.17073
RightToes  -3.4386e-010 1.2921e-014 -6.02303e-014
Spine  -7.09006 -3.51541 -5.57633
Spine1  9.07166 -4.22475 0.829901
HEad  14.5555 -33.8847 7.88435
LeftShoulder1  1.67392 -4.20149 -15.7717
LeftArm  -0.81165 -16.5942 -45.4586
LeftForeArm  -4.94931 -34.0516 -7.87493
LeftHand  0.200884 1.40158 -6.1629
RightShoulder  1.48812 1.05113 28.1699
RightArm  -9.63779 1.20762 53.5366
RightForeArm  16.3417 54.1165 14.2752
RightHand  0.0836912 -7.73572 -5.84385
LeftUpLeg  -22.0817 -10.008 7.33654
LeftLeg  21.0139 -4.01037 -1.36147
LeftFoot  -4.01129 1.10585 -16.7887
LeftToes  -7.12384e-010 -7.51861e-011 -8.34901e-011
463
root  -18.4833 38.2489 -65.5688 177.051 37.1487 177.408
RightUpLeg  -5.40415 14.9004 -8.92582
RightLeg  50.5638 4.9596 6.09386
RightFoot  -13.1376 -0.0152527 4.71024
RightToes  -3.4386e-010 1.2921e-014 -6.02303e-014
Spine  -7.36428 -3.65022 -5.61791
Spine1  9.11327 -4.33193 0.612605
HEad  13.6781 -34.3043 8.83278
LeftShoulder1  1.74928 -4.51968 -15.8341
LeftArm  -0.346748 -17.6582 -45.7894
LeftForeArm  -3.68087 -32.8181 -7.46661
LeftHand  0.385219 -0.650164 -7.37521
RightShoulder  1.46565 0.997493 28.0672
RightArm  -10.4546 1.94234 53.4687
RightForeArm  16.2184 53.2476 13.7992
RightHand  0.0671129 -7.4654 -5.62755
LeftUpLeg  -20.8483 -7.37194 6.26606
LeftLeg  20.8322 -3.64898 -1.07742
LeftFoot  -4.71041 0.972371 -16.2087
LeftToes  -7.12384e-010 -7.51861e-011 -8.34901e-011
464
root  -18.5871 38.5337 -66.4746 177.221 39.7019 177.414
RightUpLeg  -9.35285 13.9206 -8.99709
RightLeg  55.7086 1.85532 2.51579
RightFoot  -7.9662 -0.219378 5.60193
RightToes  -3.4386e-010 1.2921e-014 -6.02303e-014
Spine  -6.67523 -4.03639 -6.67508
Spine1  8.91715 -4.90475 1.46362
HEad  12.3028 -33.893 10.1738
LeftShoulder1  1.83911 -4.98489 -15.6483
LeftArm  0.330472 -18.7998 -46.0901
LeftForeArm  -4.85342 -32.1705 -7.35627
LeftHand  0.318523 -0.31811 -6.4864
RightShoulder  1.45247 0.969927 27.9739
RightArm  -10.9664 2.89739 53.3598
RightForeArm  16.4494 52.6076 13.4353
RightHand  0.0529839 -7.28674 -5.2724
LeftUpLeg  -19.0227 -5.13357 5.10228
LeftLeg  20.1777 -3.42011 -0.658668
LeftFoot  -5.17748 0.822979 -14.6453
LeftToes  -7.12384e-010 -7.51861e-011 -8.34901e-011
465
root  -18.6903 38.7151 -67.3066 177.58 42.4435 177.181
RightUpLeg  -13.1723 12.3481 -9.22273
RightLeg  59.2991 -0.148329 -0.745667
RightFoot  -7.59495 -0.174561 3.75715
RightToes  -3.4386e-010 1.2921e-014 -6.02303e-014
Spine  -6.42369 -4.36317 -7.58864
Spine1  8.84093 -5.31753 1.83257
HEad  11.1389 -33.0138 11.1843
LeftShoulder1  1.93521 -5.4405 -15.5869
LeftArm  0.756558 -20.2708 -46.2316
LeftForeArm  -5.42024 -31.213 -7.13426
LeftHand  0.263128 -0.015505 -5.69502
RightShoulder  1.47968 1.07655 27.7656
RightArm  -11.3673 3.89452 53.2171
RightForeArm  16.3651 52.0509 13.1524
RightHand  0.0438347 -7.23839 -4.85553
LeftUpLeg  -18.0338 -3.30361 3.98612
LeftLeg  20.0442 -2.6099 -0.0899628
LeftFoot  -5.8387 0.677838 -13.3308
LeftToes  -7.12384e-010 -7.51861e-011 -8.34901e-011
466
root  -18.7663 38.9016 -68.0984 178.124 44.7873 177.417
RightUpLeg  -15.924 10.2898 -8.41309
RightLeg  60.2194 -1.75824 -3.82066
RightFoot  -8.6104 -0.125365 2.80584
RightToes  -3.4386e-010 1.2921e-014 -6.02303e-014
Spine  -5.79775 -4.74262 -8.23521
Spine1  8.43346 -5.80639 2.42637
HEad  10.0696 -32.2359 12.3008
LeftShoulder1  2.00106 -5.92311 -15.1018
LeftArm  0.768049 -21.6365 -47.1544
LeftForeArm  -5.425 -30.4122 -6.92803
LeftHand  0.255056 0.112766 -5.67276
RightShoulder  1.46982 1.05148 27.7314
RightArm  -12.0446 4.80097 53.0219
RightForeArm  16.1858 51.5241 12.9002
RightHand  0.0367076 -7.16651 -4.58679
LeftUpLeg  -16.9611 -1.15845 3.24453
LeftLeg  19.599 -2.35586 0.131429
LeftFoot  -6.0815 0.576278 -11.7229
LeftToes  -7.12384e-010 -7.51861e-011 -8.34901e-011
467
root  -18.7842 39.0494 -68.8421 178.87 46.9336 177.942
RightUpLeg  -17.8818 8.41286 -7.16481
RightLeg  58.7184 -1.77576 -3.622
RightFoot  -9.11631 -0.117334 2.8545
RightToes  -3.4386e-010 1.2921e-014 -6.02303e-014
Spine  -5.50703 -5.05201 -8.81318
Spine1  8.4699 -6.20114 2.98136
HEad  9.0251 -31.4718 13.4842
LeftShoulder1  2.18583 -6.89463 -14.8238
LeftArm  0.860194 -23.2174 -47.4297
LeftForeArm  -5.75133 -29.7633 -6.7805
LeftHand  0.227479 0.38534 -5.37783
RightShoulder  1.38525 0.761065 28.0585
RightArm  -12.8838 5.99726 52.5381
RightForeArm  15.4223 50.8733 12.6419
RightHand  0.0481242 -7.12431 -5.38228
LeftUpLeg  -16.1745 0.401019 2.8213
LeftLeg  19.4772 -1.74813 0.337041
LeftFoot  -5.9307 0.472702 -9.23864
LeftToes  -7.12384e-010 -7.51861e-011 -8.34901e-011
468
root  -18.8079 39.1851 -69.5675 179.884 49.2283 178.604
RightUpLeg  -19.2135 6.19978 -5.773
RightLeg  54.9024 -1.09174 -2.07608
RightFoot  -10.4623 -0.0980577 3.52515
RightToes  -3.4386e-010 1.2921e-014 -6.02303e-014
Spine  -5.14254 -5.42159 -9.12691
Spine1  8.10344 -6.71236 3.87544
HEad  8.44955 -30.2189 13.8416
LeftShoulder1  2.28595 -7.21472 -15.1523
LeftArm  0.947535 -24.7711 -47.7164
LeftForeArm  -5.7403 -29.3018 -6.6644
LeftHand  0.21549 0.402142 -5.11711
RightShoulder  1.44168 0.987393 27.5703
RightArm  -14.101 6.97984 52.4367
RightForeArm  15.0716 50.238 12.3657
RightHand  0.029023 -6.82546 -4.89597
LeftUpLeg  -15.602 1.14018 2.4828
LeftLeg  19.3516 -0.199497 0.917531
LeftFoot  -5.90955 0.377343 -7.20254
LeftToes  -7.12384e-010 -7.51861e-011 -8.34901e-011
